# xmcd
# 
# Track frame offsets:
#     150
#     10415
#     21205
#     33138
#     52583
#     62713
#     78303
#     98085
#     112073
#     127780
#     157200
#     169693
#     188120
#     199100
#     211933
#     225593
#     239883
#     252525
#     271128
#     290980
# 
# Disc length: 4063
# 
# Revision: 0
# Processed by: cddbd v1.5.2PL0 Copyright (c) Steve Scherf et al.
# Submitted via: BonkEnc v1.0.5
# 
DISCID=180fdd14
DTITLE=Elis Regina - Fascinação
DYEAR=1988
DGENRE=MPB
TTITLE0=Menino das Laranjas
TTITLE1=Upa Neguinho
TTITLE2=Madalena
TTITLE3=Lapinha
TTITLE4=Corrida de Jangada
TTITLE5=Canto de Ossanha
TTITLE6=Como Nossos Pais
TTITLE7=O Mestre-Sala Dos Mares
TTITLE8=Vou Deitar e Rolar (QUAQUARAQUAQUA)
TTITLE9=Pot-Pourri
TTITLE10=Arrastão
TTITLE11=Romaria
TTITLE12=Mucuripe
TTITLE13=Casa no Campo
TTITLE14=Fascinação (Fascination)
TTITLE15=Me Deixas Louca (Me Vuelves Loco)
TTITLE16=Atrás da Porta
TTITLE17=Cartomante
TTITLE18=Dois Pra Lá, Dois Pra Cá
TTITLE19=O Rancho da Goiabada
EXTD=(p)1988\npolygram\n836844-2
EXTT0=
EXTT1=
EXTT2=
EXTT3=
EXTT4=
EXTT5=
EXTT6=
EXTT7=
EXTT8=
EXTT9=
EXTT10=
EXTT11=
EXTT12=
EXTT13=
EXTT14=
EXTT15=
EXTT16=
EXTT17=
EXTT18=
EXTT19=
PLAYORDER=
